<?xml version="1.0" standalone="no"?>
<!DOCTYPE svg PUBLIC "-//W3C//DTD SVG 20010904//EN"
 "http://www.w3.org/TR/2001/REC-SVG-20010904/DTD/svg10.dtd">
<svg version="1.0" xmlns="http://www.w3.org/2000/svg"
 width="200.000000pt" height="200.000000pt" viewBox="0 0 200.000000 200.000000"
 preserveAspectRatio="xMidYMid meet">
<metadata>
Created by potrace 1.11, written by Peter Selinger 2001-2013
</metadata>
<g transform="translate(0.000000,200.000000) scale(0.100000,-0.100000)"
fill="#000000" stroke="none">
<path d="M861 1899 c-66 -11 -228 -65 -258 -85 -23 -14 -23 -18 -23 -204 l0
-190 -197 -2 -196 -3 -28 -66 c-51 -126 -63 -192 -63 -349 -1 -157 16 -244 68
-362 l26 -58 195 0 c107 0 195 3 195 6 0 3 -18 26 -39 52 -150 180 -168 452
-44 660 57 97 141 175 236 222 183 90 350 90 533 0 196 -96 318 -296 318 -520
0 -141 -42 -262 -125 -362 -21 -26 -39 -49 -39 -53 0 -3 88 -4 196 -3 l197 3
28 70 c47 117 64 207 64 345 0 138 -17 228 -64 345 l-28 70 -196 3 -197 2 -2
196 -3 196 -59 25 c-141 59 -359 87 -495 62z"/>
<path d="M592 378 l3 -193 59 -23 c125 -50 203 -64 346 -64 143 0 221 14 346
64 l59 23 3 193 2 193 -52 -39 c-72 -54 -126 -80 -215 -103 -97 -24 -189 -24
-286 0 -89 23 -143 49 -215 103 l-52 39 2 -193z"/>
</g>
</svg>
